<svg xmlns="http://www.w3.org/2000/svg" xmlns:xlink="http://www.w3.org/1999/xlink" width="500" zoomAndPan="magnify" viewBox="0 0 375 374.999991" height="500" preserveAspectRatio="xMidYMid meet" version="1.0"><defs><clipPath id="2b735bb091"><path d="M 3.714844 3.714844 L 371.214844 3.714844 L 371.214844 371.214844 L 3.714844 371.214844 Z M 3.714844 3.714844 " clip-rule="nonzero"/></clipPath></defs><g clip-path="url(#2b735bb091)"><path fill="#1a4789" d="M 371.214844 315.328125 C 371.214844 346.171875 346.214844 371.167969 315.375 371.167969 L 59.570312 371.167969 C 28.730469 371.167969 3.726562 346.171875 3.726562 315.328125 L 3.726562 59.527344 C 3.726562 28.683594 28.730469 3.683594 59.570312 3.683594 L 315.371094 3.683594 C 346.214844 3.683594 371.210938 28.683594 371.210938 59.527344 L 371.210938 315.328125 Z M 371.214844 315.328125 " fill-opacity="1" fill-rule="nonzero"/></g><path fill="#ffffff" d="M 247.222656 215.980469 L 253.167969 169.902344 L 207.539062 169.902344 L 207.539062 140.484375 C 207.539062 127.144531 211.261719 118.050781 230.386719 118.050781 L 254.765625 118.039062 L 254.765625 76.828125 C 250.558594 76.265625 236.085938 75.011719 219.21875 75.011719 C 184.039062 75.011719 159.964844 96.488281 159.964844 135.925781 L 159.964844 169.902344 L 120.175781 169.902344 L 120.175781 215.980469 L 159.964844 215.980469 L 159.964844 334.207031 L 207.539062 334.207031 L 207.539062 215.980469 Z M 247.222656 215.980469 " fill-opacity="1" fill-rule="nonzero"/></svg>