<svg xmlns="http://www.w3.org/2000/svg" xmlns:xlink="http://www.w3.org/1999/xlink" width="500" zoomAndPan="magnify" viewBox="0 0 375 374.999991" height="500" preserveAspectRatio="xMidYMid meet" version="1.0"><defs><clipPath id="f4c7901fcd"><path d="M 3.375 3.375 L 371.625 3.375 L 371.625 371.625 L 3.375 371.625 Z M 3.375 3.375 " clip-rule="nonzero"/></clipPath></defs><path fill="#ff1617" d="M 205.175781 132.273438 L 205.175781 162.210938 L 242.871094 162.210938 L 237.597656 203.160156 L 205.175781 203.160156 L 205.175781 297.003906 L 164.074219 297.003906 L 164.074219 203.160156 L 128.863281 203.160156 L 128.863281 162.210938 L 164.074219 162.210938 L 164.074219 132.273438 C 164.074219 99.855469 190.285156 77.984375 222.707031 77.984375 C 236.976562 77.984375 245.972656 80.15625 245.972656 80.15625 L 245.972656 114.746094 L 222.707031 114.746094 C 213.089844 114.746094 205.175781 122.65625 205.175781 132.273438 Z M 205.175781 132.273438 " fill-opacity="1" fill-rule="nonzero"/><g clip-path="url(#f4c7901fcd)"><path fill="#ff1617" d="M 187.496094 371.613281 C 86.050781 371.613281 3.375 289.09375 3.375 187.496094 C 3.375 85.894531 86.050781 3.375 187.496094 3.375 C 289.09375 3.375 371.613281 86.050781 371.613281 187.496094 C 371.613281 288.9375 289.09375 371.613281 187.496094 371.613281 Z M 187.496094 13.457031 C 91.480469 13.457031 13.457031 91.480469 13.457031 187.496094 C 13.457031 283.507812 91.480469 361.53125 187.496094 361.53125 C 283.507812 361.53125 361.53125 283.507812 361.53125 187.496094 C 361.53125 91.480469 283.507812 13.457031 187.496094 13.457031 Z M 187.496094 13.457031 " fill-opacity="1" fill-rule="nonzero"/></g></svg>