<svg xmlns="http://www.w3.org/2000/svg" xmlns:xlink="http://www.w3.org/1999/xlink" width="500" zoomAndPan="magnify" viewBox="0 0 375 374.999991" height="500" preserveAspectRatio="xMidYMid meet" version="1.0"><defs><clipPath id="4eafac55d8"><path d="M 3.558594 3.558594 L 371.808594 3.558594 L 371.808594 371.808594 L 3.558594 371.808594 Z M 3.558594 3.558594 " clip-rule="nonzero"/></clipPath></defs><path fill="#ff1617" d="M 187.496094 146.726562 C 165.042969 146.726562 146.726562 165.042969 146.726562 187.496094 C 146.726562 209.953125 165.042969 228.265625 187.496094 228.265625 C 209.953125 228.265625 228.265625 209.953125 228.265625 187.496094 C 228.265625 165.042969 209.953125 146.726562 187.496094 146.726562 Z M 187.496094 146.726562 " fill-opacity="1" fill-rule="nonzero"/><path fill="#ff1617" d="M 242.28125 87.484375 L 132.714844 87.484375 C 107.871094 87.484375 87.484375 107.710938 87.484375 132.714844 L 87.484375 242.28125 C 87.484375 267.125 107.710938 287.507812 132.714844 287.507812 L 242.28125 287.507812 C 267.125 287.507812 287.507812 267.28125 287.507812 242.28125 L 287.507812 132.714844 C 287.347656 107.710938 267.125 87.484375 242.28125 87.484375 Z M 187.496094 248.808594 C 153.578125 248.808594 126.027344 221.257812 126.027344 187.339844 C 126.027344 153.417969 153.578125 125.867188 187.496094 125.867188 C 221.417969 125.867188 248.96875 153.417969 248.96875 187.339844 C 248.808594 221.257812 221.257812 248.808594 187.496094 248.808594 Z M 253.269531 136.21875 C 245.148438 136.21875 238.457031 129.527344 238.457031 121.40625 C 238.457031 113.285156 245.148438 106.597656 253.269531 106.597656 C 261.390625 106.597656 268.078125 113.285156 268.078125 121.40625 C 268.078125 129.6875 261.550781 136.21875 253.269531 136.21875 Z M 253.269531 136.21875 " fill-opacity="1" fill-rule="nonzero"/><g clip-path="url(#4eafac55d8)"><path fill="#ff1617" d="M 187.496094 3.558594 C 85.894531 3.558594 3.558594 85.894531 3.558594 187.496094 C 3.558594 289.101562 85.894531 371.433594 187.496094 371.433594 C 289.101562 371.433594 371.433594 289.101562 371.433594 187.496094 C 371.277344 85.894531 288.941406 3.558594 187.496094 3.558594 Z M 308.050781 242.28125 C 308.050781 278.589844 278.429688 308.210938 242.121094 308.210938 L 132.714844 308.210938 C 96.40625 308.210938 66.785156 278.589844 66.785156 242.28125 L 66.785156 132.714844 C 66.785156 96.40625 96.40625 66.785156 132.714844 66.785156 L 242.28125 66.785156 C 278.589844 66.785156 308.210938 96.40625 308.210938 132.714844 L 308.210938 242.28125 Z M 308.050781 242.28125 " fill-opacity="1" fill-rule="nonzero"/></g></svg>