<svg xmlns="http://www.w3.org/2000/svg" xmlns:xlink="http://www.w3.org/1999/xlink" width="500" zoomAndPan="magnify" viewBox="0 0 375 374.999991" height="500" preserveAspectRatio="xMidYMid meet" version="1.0"><defs><clipPath id="22ba6a5879"><path d="M 3 3 L 371.25 3 L 371.25 371.25 L 3 371.25 Z M 3 3 " clip-rule="nonzero"/></clipPath></defs><g clip-path="url(#22ba6a5879)"><path fill="#ff1617" d="M 187.089844 3 C 85.582031 3 3 85.582031 3 187.089844 C 3 288.597656 85.582031 371.179688 187.089844 371.179688 C 288.597656 371.179688 371.179688 288.597656 371.179688 187.089844 C 371.179688 85.582031 288.597656 3 187.089844 3 Z M 187.089844 353.921875 C 95.097656 353.921875 20.257812 279.082031 20.257812 187.089844 C 20.257812 95.097656 95.097656 20.257812 187.089844 20.257812 C 279.082031 20.257812 353.921875 95.097656 353.921875 187.089844 C 353.921875 279.082031 279.082031 353.921875 187.089844 353.921875 Z M 273.605469 111.226562 L 100.574219 111.226562 C 89 111.226562 79.582031 120.640625 79.582031 132.214844 L 79.582031 241.964844 C 79.582031 253.539062 89 262.957031 100.574219 262.957031 L 273.605469 262.957031 C 285.179688 262.957031 294.59375 253.539062 294.59375 241.964844 L 294.59375 132.214844 C 294.59375 120.640625 285.179688 111.226562 273.605469 111.226562 Z M 260.597656 128.484375 L 187.089844 186.859375 L 113.582031 128.484375 Z M 273.605469 245.695312 L 100.574219 245.695312 C 98.515625 245.695312 96.84375 244.023438 96.84375 241.964844 L 96.84375 137.230469 L 181.722656 204.632812 C 183.292969 205.882812 185.191406 206.503906 187.089844 206.503906 C 188.984375 206.503906 190.882812 205.882812 192.453125 204.632812 L 277.335938 137.230469 L 277.335938 241.964844 C 277.335938 244.023438 275.664062 245.695312 273.605469 245.695312 Z M 273.605469 245.695312 " fill-opacity="1" fill-rule="nonzero"/></g></svg>