<svg xmlns="http://www.w3.org/2000/svg" xmlns:xlink="http://www.w3.org/1999/xlink" width="500" zoomAndPan="magnify" viewBox="0 0 375 374.999991" height="500" preserveAspectRatio="xMidYMid meet" version="1.0"><defs><clipPath id="6f04f5e918"><path d="M 5.0625 5.8125 L 369.5625 5.8125 L 369.5625 370.3125 L 5.0625 370.3125 Z M 5.0625 5.8125 " clip-rule="nonzero"/></clipPath></defs><g clip-path="url(#6f04f5e918)"><path fill="#ff1617" d="M 187.496094 5.8125 C 86.75 5.8125 5.0625 87.5 5.0625 188.246094 C 5.0625 288.992188 86.75 370.675781 187.496094 370.675781 C 288.242188 370.675781 369.925781 288.992188 369.925781 188.246094 C 369.925781 87.5 288.242188 5.8125 187.496094 5.8125 Z M 187.496094 349.574219 C 98.320312 349.574219 26.164062 277.417969 26.164062 188.246094 C 26.164062 99.070312 98.320312 26.914062 187.496094 26.914062 C 276.667969 26.914062 348.824219 99.070312 348.824219 188.246094 C 348.824219 277.417969 276.667969 349.574219 187.496094 349.574219 Z M 187.496094 349.574219 " fill-opacity="1" fill-rule="nonzero"/></g><path fill="#ff1617" d="M 279.597656 158.773438 C 279.597656 158.085938 279.566406 157.398438 279.550781 156.710938 C 279.535156 155.859375 279.53125 155.007812 279.492188 154.15625 C 279.480469 153.894531 279.449219 153.632812 279.433594 153.371094 C 279.363281 152.105469 279.285156 150.84375 279.160156 149.582031 C 279.152344 149.53125 279.144531 149.484375 279.140625 149.433594 C 279.042969 148.453125 278.886719 147.492188 278.738281 146.53125 L 278.460938 144.65625 C 278.273438 143.28125 278.09375 141.90625 277.828125 140.539062 C 277.734375 140.050781 277.613281 139.574219 277.496094 139.089844 C 277.46875 138.96875 277.441406 138.84375 277.414062 138.71875 C 277.1875 137.789062 276.945312 136.859375 276.714844 135.925781 L 276.710938 135.921875 C 276.359375 134.507812 276.054688 133.097656 275.636719 131.695312 C 275.183594 130.191406 274.621094 128.730469 274.09375 127.257812 C 273.605469 125.863281 273.144531 124.464844 272.582031 123.089844 C 272.015625 121.714844 271.351562 120.390625 270.71875 119.050781 C 270.0625 117.636719 269.4375 116.210938 268.699219 114.824219 C 268.015625 113.539062 267.238281 112.320312 266.503906 111.074219 C 265.699219 109.714844 264.933594 108.332031 264.050781 107.007812 C 263.761719 106.570312 263.445312 106.148438 263.140625 105.722656 C 263.074219 105.632812 263.011719 105.542969 262.945312 105.449219 C 262.378906 104.679688 261.808594 103.914062 261.238281 103.140625 L 261.027344 102.851562 C 260.246094 101.792969 259.511719 100.710938 258.675781 99.683594 C 254.808594 94.933594 250.492188 90.582031 245.78125 86.683594 C 244.960938 85.996094 244.101562 85.382812 243.246094 84.757812 L 241.753906 83.632812 C 241.703125 83.597656 241.652344 83.5625 241.605469 83.523438 C 240.621094 82.769531 239.636719 82.019531 238.605469 81.320312 C 238.574219 81.300781 238.550781 81.28125 238.519531 81.261719 C 238.484375 81.234375 238.441406 81.210938 238.402344 81.1875 C 237.464844 80.558594 236.507812 79.988281 235.546875 79.421875 L 233.421875 78.136719 C 232.570312 77.613281 231.714844 77.089844 230.832031 76.609375 C 230.808594 76.597656 230.789062 76.585938 230.769531 76.574219 C 230.753906 76.5625 230.738281 76.558594 230.71875 76.550781 C 229.484375 75.886719 228.21875 75.3125 226.957031 74.71875 L 225.929688 74.226562 C 224.820312 73.683594 223.714844 73.140625 222.574219 72.664062 C 221.605469 72.257812 220.625 71.910156 219.640625 71.5625 C 219.625 71.554688 219.605469 71.550781 219.585938 71.542969 L 217.285156 70.710938 C 217.25 70.695312 217.214844 70.6875 217.179688 70.671875 C 216.140625 70.289062 215.101562 69.90625 214.035156 69.582031 C 213.101562 69.296875 212.15625 69.0625 211.207031 68.832031 C 211.132812 68.8125 211.0625 68.792969 210.988281 68.773438 L 208.53125 68.160156 C 208.492188 68.148438 208.453125 68.140625 208.414062 68.128906 C 207.375 67.863281 206.335938 67.597656 205.273438 67.382812 C 205.269531 67.382812 205.269531 67.382812 205.269531 67.382812 C 204.019531 67.128906 202.761719 66.957031 201.503906 66.78125 L 199.0625 66.417969 C 198.921875 66.394531 198.777344 66.382812 198.636719 66.359375 C 198.3125 66.304688 197.980469 66.269531 197.648438 66.21875 C 197.214844 66.15625 196.777344 66.078125 196.335938 66.035156 C 193.464844 65.75 190.585938 65.613281 187.710938 65.605469 C 187.640625 65.605469 187.574219 65.601562 187.503906 65.601562 C 187.503906 65.601562 187.5 65.601562 187.5 65.601562 C 184.546875 65.601562 181.597656 65.746094 178.660156 66.03125 C 178.179688 66.078125 177.707031 66.160156 177.234375 66.230469 C 176.972656 66.269531 176.714844 66.296875 176.453125 66.335938 C 176.277344 66.367188 176.09375 66.382812 175.914062 66.410156 L 173.421875 66.78125 C 172.183594 66.949219 170.945312 67.125 169.707031 67.371094 C 168.527344 67.601562 167.367188 67.90625 166.207031 68.210938 L 163.886719 68.804688 C 163.65625 68.863281 163.429688 68.929688 163.203125 68.988281 C 163.003906 69.035156 162.8125 69.09375 162.613281 69.144531 C 162.058594 69.289062 161.5 69.421875 160.949219 69.585938 C 160.542969 69.710938 160.15625 69.863281 159.757812 70.003906 C 159.273438 70.167969 158.789062 70.328125 158.3125 70.5 C 158.09375 70.582031 157.863281 70.652344 157.648438 70.734375 L 155.613281 71.46875 C 155.414062 71.542969 155.210938 71.625 155.011719 71.695312 C 154.445312 71.898438 153.882812 72.113281 153.320312 72.328125 C 153.015625 72.445312 152.714844 72.542969 152.410156 72.667969 C 152.066406 72.8125 151.738281 72.984375 151.398438 73.136719 C 150.921875 73.351562 150.445312 73.566406 149.976562 73.792969 C 149.777344 73.886719 149.574219 73.972656 149.371094 74.070312 L 147.28125 75.066406 C 147.0625 75.171875 146.84375 75.285156 146.625 75.390625 C 146.277344 75.554688 145.933594 75.730469 145.585938 75.898438 C 145.125 76.125 144.660156 76.335938 144.203125 76.582031 C 143.628906 76.890625 143.078125 77.234375 142.519531 77.570312 C 142.445312 77.617188 142.363281 77.664062 142.285156 77.710938 C 142.035156 77.859375 141.78125 78 141.535156 78.152344 L 139.367188 79.460938 C 139.15625 79.585938 138.957031 79.722656 138.746094 79.847656 C 138.332031 80.09375 137.921875 80.359375 137.511719 80.617188 C 137.160156 80.839844 136.792969 81.042969 136.445312 81.28125 C 136.136719 81.488281 135.84375 81.726562 135.539062 81.945312 C 135.03125 82.3125 134.519531 82.679688 134.019531 83.058594 C 133.863281 83.179688 133.699219 83.289062 133.542969 83.410156 L 131.402344 85.011719 C 131.230469 85.136719 131.058594 85.273438 130.890625 85.402344 C 130.824219 85.449219 130.757812 85.503906 130.691406 85.554688 C 130.1875 85.929688 129.683594 86.292969 129.183594 86.703125 C 124.492188 90.582031 120.160156 94.957031 116.289062 99.714844 C 115.742188 100.394531 115.234375 101.09375 114.730469 101.792969 L 113.125 103.964844 C 112.980469 104.164062 112.839844 104.371094 112.691406 104.570312 C 112.394531 104.96875 112.105469 105.375 111.816406 105.777344 C 111.519531 106.191406 111.207031 106.59375 110.921875 107.015625 C 110.625 107.46875 110.363281 107.933594 110.089844 108.394531 C 109.882812 108.738281 109.667969 109.078125 109.46875 109.421875 C 109.375 109.582031 109.273438 109.734375 109.179688 109.894531 L 107.886719 112.082031 C 107.792969 112.234375 107.710938 112.394531 107.617188 112.546875 C 107.359375 112.972656 107.113281 113.410156 106.863281 113.847656 C 106.671875 114.179688 106.460938 114.503906 106.28125 114.84375 C 106.148438 115.101562 106.035156 115.371094 105.90625 115.632812 C 105.46875 116.503906 105.054688 117.386719 104.644531 118.265625 L 104.128906 119.375 C 103.542969 120.605469 102.9375 121.835938 102.417969 123.101562 C 101.851562 124.472656 101.394531 125.875 100.902344 127.265625 C 100.375 128.742188 99.8125 130.199219 99.359375 131.707031 C 98.941406 133.101562 98.636719 134.519531 98.285156 135.933594 C 97.898438 137.46875 97.472656 138.984375 97.167969 140.550781 C 97.078125 141.011719 97.015625 141.472656 96.941406 141.929688 C 96.898438 142.175781 96.855469 142.421875 96.820312 142.664062 C 96.714844 143.378906 96.613281 144.09375 96.515625 144.808594 L 96.257812 146.539062 C 96.101562 147.539062 95.9375 148.542969 95.839844 149.566406 C 95.539062 152.628906 95.390625 155.703125 95.390625 158.773438 C 95.390625 161.847656 95.539062 164.921875 95.835938 167.976562 C 95.867188 168.28125 95.921875 168.578125 95.960938 168.878906 C 96.019531 169.335938 96.074219 169.800781 96.148438 170.253906 C 96.171875 170.417969 96.191406 170.585938 96.214844 170.75 L 96.566406 173.179688 C 96.75 174.453125 96.917969 175.71875 97.164062 176.988281 C 97.234375 177.347656 97.332031 177.691406 97.414062 178.050781 C 97.542969 178.605469 97.664062 179.167969 97.804688 179.71875 C 97.871094 179.980469 97.921875 180.246094 97.992188 180.507812 L 98.542969 182.730469 C 98.796875 183.773438 99.042969 184.8125 99.351562 185.835938 C 99.558594 186.515625 99.800781 187.179688 100.035156 187.84375 C 100.066406 187.933594 100.09375 188.027344 100.128906 188.117188 C 100.261719 188.496094 100.382812 188.886719 100.519531 189.261719 L 101.269531 191.359375 C 101.621094 192.402344 101.984375 193.4375 102.402344 194.453125 C 102.808594 195.441406 103.269531 196.417969 103.730469 197.382812 L 104.773438 199.613281 C 105.25 200.660156 105.738281 201.703125 106.273438 202.71875 C 106.792969 203.6875 107.359375 204.617188 107.921875 205.554688 L 109.023438 207.414062 C 109.628906 208.460938 110.242188 209.507812 110.921875 210.539062 C 111.632812 211.613281 112.410156 212.644531 113.179688 213.667969 L 114.628906 215.636719 C 115.164062 216.378906 115.707031 217.128906 116.296875 217.859375 C 118.277344 220.285156 120.328125 222.585938 122.417969 224.695312 L 187.472656 290.324219 L 252.542969 224.695312 C 254.640625 222.570312 256.695312 220.277344 258.660156 217.855469 C 259.25 217.125 259.789062 216.382812 260.328125 215.640625 L 261.835938 213.589844 C 262.589844 212.585938 263.347656 211.578125 264.027344 210.542969 C 264.71875 209.511719 265.328125 208.453125 265.941406 207.390625 L 267.070312 205.492188 C 267.234375 205.222656 267.382812 204.945312 267.542969 204.679688 C 267.617188 204.554688 267.6875 204.425781 267.761719 204.300781 C 268.074219 203.773438 268.394531 203.253906 268.683594 202.714844 C 269.273438 201.617188 269.785156 200.488281 270.296875 199.371094 L 271.058594 197.734375 C 271.140625 197.558594 271.214844 197.382812 271.296875 197.210938 C 271.691406 196.382812 272.078125 195.546875 272.433594 194.703125 C 272.472656 194.613281 272.515625 194.53125 272.554688 194.441406 C 272.96875 193.441406 273.316406 192.425781 273.675781 191.414062 L 274.488281 189.105469 C 274.503906 189.066406 274.515625 189.027344 274.53125 188.984375 C 274.867188 188.050781 275.199219 187.109375 275.496094 186.152344 C 275.527344 186.046875 275.570312 185.945312 275.601562 185.839844 C 275.613281 185.800781 275.621094 185.765625 275.632812 185.722656 C 275.910156 184.792969 276.140625 183.847656 276.367188 182.90625 C 276.382812 182.847656 276.398438 182.792969 276.414062 182.734375 L 276.976562 180.457031 C 276.996094 180.390625 277.011719 180.320312 277.03125 180.25 C 277.117188 179.90625 277.207031 179.566406 277.292969 179.222656 C 277.453125 178.578125 277.601562 177.933594 277.734375 177.28125 C 277.753906 177.175781 277.785156 177.070312 277.804688 176.964844 C 277.828125 176.835938 277.84375 176.710938 277.867188 176.582031 C 277.996094 175.894531 278.109375 175.207031 278.207031 174.515625 C 278.210938 174.476562 278.21875 174.4375 278.222656 174.398438 C 278.28125 173.988281 278.339844 173.578125 278.394531 173.171875 L 278.761719 170.679688 C 278.765625 170.640625 278.769531 170.601562 278.777344 170.5625 C 278.886719 169.863281 278.984375 169.160156 279.070312 168.453125 C 279.085938 168.296875 279.117188 168.140625 279.132812 167.980469 C 279.289062 166.449219 279.402344 164.910156 279.484375 163.363281 C 279.5 163.019531 279.496094 162.675781 279.511719 162.332031 C 279.554688 161.144531 279.597656 159.960938 279.597656 158.773438 Z M 187.484375 191.300781 C 169.566406 191.300781 154.984375 176.589844 154.984375 158.511719 C 154.984375 140.433594 169.566406 125.726562 187.484375 125.726562 C 205.40625 125.726562 219.988281 140.433594 219.980469 158.511719 C 219.976562 176.589844 205.402344 191.300781 187.484375 191.300781 Z M 187.484375 191.300781 " fill-opacity="1" fill-rule="nonzero"/><path fill="#ff1617" d="M 223.472656 269.605469 L 217.746094 275.378906 C 236.304688 278.539062 247.214844 284.242188 247.214844 288.589844 C 247.214844 294.945312 223.949219 304.183594 187.5 304.183594 C 151.050781 304.183594 127.785156 294.945312 127.785156 288.589844 C 127.785156 284.234375 138.6875 278.539062 157.25 275.378906 L 151.523438 269.605469 C 133.953125 273.152344 121.144531 279.53125 121.144531 288.59375 C 121.144531 303.230469 154.527344 310.886719 187.503906 310.886719 C 220.480469 310.886719 253.859375 303.222656 253.859375 288.59375 C 253.855469 279.539062 241.050781 273.160156 223.472656 269.605469 Z M 223.472656 269.605469 " fill-opacity="1" fill-rule="nonzero"/></svg>