<svg xmlns="http://www.w3.org/2000/svg" xmlns:xlink="http://www.w3.org/1999/xlink" width="500" zoomAndPan="magnify" viewBox="0 0 375 374.999991" height="500" preserveAspectRatio="xMidYMid meet" version="1.0"><defs><clipPath id="f9f5c06d01"><path d="M 4.296875 4.296875 L 371 4.296875 L 371 371 L 4.296875 371 Z M 4.296875 4.296875 " clip-rule="nonzero"/></clipPath></defs><g clip-path="url(#f9f5c06d01)"><path fill="#ff1617" d="M 187.496094 370.695312 C 86.476562 370.695312 4.296875 288.515625 4.296875 187.496094 C 4.296875 86.476562 86.476562 4.296875 187.496094 4.296875 C 288.515625 4.296875 370.695312 86.476562 370.695312 187.496094 C 370.695312 288.515625 288.515625 370.695312 187.496094 370.695312 Z M 187.496094 19.5625 C 94.902344 19.5625 19.5625 94.902344 19.5625 187.496094 C 19.5625 280.085938 94.902344 355.429688 187.496094 355.429688 C 280.085938 355.429688 355.429688 280.085938 355.429688 187.496094 C 355.429688 94.902344 280.085938 19.5625 187.496094 19.5625 Z M 187.496094 19.5625 " fill-opacity="1" fill-rule="nonzero"/></g><path fill="#ff1617" d="M 240.46875 294.40625 C 224.960938 294.40625 209.007812 290.269531 196.257812 286.285156 C 171.191406 278.453125 148.03125 264.425781 129.300781 245.691406 C 104.109375 220.5 86.917969 186.855469 82.15625 153.390625 C 80.019531 138.367188 78.765625 119.148438 88.171875 103.820312 C 96.964844 89.515625 112.855469 80.628906 129.664062 80.628906 C 132.597656 80.628906 135.4375 80.949219 138.167969 81.40625 C 138.304688 81.4375 138.460938 81.453125 138.597656 81.5 C 148.0625 83.253906 155.558594 91.363281 156.886719 101.300781 L 163.265625 149.007812 C 164.609375 159.085938 159.265625 169.054688 150.246094 173.25 C 149.253906 173.710938 148.246094 174.152344 147.207031 174.550781 C 152.535156 186.214844 159.847656 196.730469 169.039062 205.921875 C 178.230469 215.113281 188.746094 222.441406 200.425781 227.769531 C 200.808594 226.746094 201.25 225.722656 201.695312 224.730469 C 205.90625 215.707031 215.890625 210.335938 225.96875 211.722656 L 273.675781 218.105469 C 283.691406 219.433594 291.859375 227.066406 293.539062 236.652344 C 294.042969 239.507812 294.363281 242.363281 294.363281 245.308594 C 294.363281 261.171875 286.621094 276.074219 273.644531 285.171875 C 263.949219 291.980469 252.347656 294.40625 240.46875 294.40625 Z M 129.664062 95.894531 C 118.140625 95.894531 107.207031 101.988281 101.179688 111.804688 C 94.324219 122.980469 95.484375 138.75 97.269531 151.238281 C 101.574219 181.480469 117.175781 211.984375 140.09375 234.882812 C 157.085938 251.875 178.074219 264.605469 200.808594 271.691406 C 231.3125 281.203125 252.273438 281.539062 264.882812 272.667969 C 273.644531 266.53125 279.09375 256.027344 279.09375 245.308594 C 279.09375 243.21875 278.835938 241.234375 278.515625 239.324219 C 277.964844 236.148438 275.15625 233.675781 271.675781 233.21875 L 223.96875 226.820312 C 220.488281 226.441406 216.976562 228.121094 215.585938 231.144531 C 214.394531 233.691406 213.539062 236.46875 213.019531 239.386719 C 212.625 241.617188 211.265625 243.539062 209.3125 244.683594 C 207.355469 245.796875 204.992188 246.011719 202.882812 245.234375 C 186.03125 239.035156 171.039062 229.433594 158.304688 216.699219 C 145.574219 203.984375 135.96875 188.976562 129.773438 172.105469 C 128.992188 169.984375 129.191406 167.632812 130.320312 165.664062 C 131.453125 163.710938 133.390625 162.351562 135.621094 161.96875 C 138.519531 161.464844 141.296875 160.597656 143.847656 159.40625 C 146.871094 158 148.65625 154.566406 148.183594 151.023438 L 141.757812 103.316406 C 141.296875 99.820312 138.808594 97.011719 135.726562 96.492188 C 135.207031 96.382812 134.6875 96.246094 134.199219 96.046875 C 133.742188 96.171875 131.742188 95.894531 129.664062 95.894531 Z M 129.664062 95.894531 " fill-opacity="1" fill-rule="nonzero"/></svg>